<svg width="826" height="661" viewBox="0 0 826 661" fill="none" xmlns="http://www.w3.org/2000/svg">
<path d="M623.425 581.455C625.923 482.707 587.206 297.377 587.206 297.377L534.314 255.795V449.493L584.131 594.387H630.751L623.425 581.455Z" fill="#D9376E"/>
<path d="M587.189 449.905C587.189 376.23 567.975 316.5 544.276 316.5C540.717 316.57 537.253 317.829 534.314 320.121V449.481L570.645 555.141C580.69 530.745 587.189 492.677 587.189 449.905Z" fill="#0D0D0D"/>
<path d="M571.483 275.988C571.483 275.988 582.682 484.561 551.042 583.31L557.652 594.387H501.369C501.369 594.387 495.22 329.103 495.22 271.848L571.483 275.988Z" fill="#D9376E"/>
<path d="M556.375 114.63V141.735L526.933 149.983V104.242L556.375 95.9944V114.63Z" fill="#EDEEEF"/>
<path d="M539.742 124.005C540.177 124.005 540.53 123.602 540.53 123.106C540.53 122.609 540.177 122.207 539.742 122.207C539.307 122.207 538.954 122.609 538.954 123.106C538.954 123.602 539.307 124.005 539.742 124.005Z" fill="#0D0D0D"/>
<path d="M551.835 124.005C552.271 124.005 552.624 123.602 552.624 123.106C552.624 122.609 552.271 122.207 551.835 122.207C551.4 122.207 551.047 122.609 551.047 123.106C551.047 123.602 551.4 124.005 551.835 124.005Z" fill="#0D0D0D"/>
<path d="M548.289 128.461V114.63H554.361" stroke="#0D0D0D" stroke-width="2" stroke-miterlimit="10"/>
<path d="M538.26 114.63H544.338" stroke="#0D0D0D" stroke-width="2" stroke-miterlimit="10"/>
<path d="M528.875 121.72V126.524C527.783 126.524 526.736 126.029 525.963 125.148C525.191 124.268 524.757 123.073 524.757 121.827C524.757 121.682 524.757 121.542 524.757 121.403C525.007 118.485 528.875 118.789 528.875 121.72Z" fill="#EDEEEF"/>
<path d="M528.875 126.524C527.783 126.524 526.736 126.029 525.963 125.148C525.191 124.267 524.757 123.073 524.757 121.827" stroke="#0D0D0D" stroke-width="2" stroke-miterlimit="10"/>
<path d="M545.631 131.873C545.084 131.874 544.542 131.751 544.036 131.513C543.53 131.275 543.071 130.925 542.684 130.484C542.297 130.044 541.99 129.52 541.78 128.943C541.57 128.367 541.463 127.749 541.463 127.125" stroke="#FF6498" stroke-width="2" stroke-miterlimit="10"/>
<path d="M534.314 147.919L526.933 149.983" stroke="#0D0D0D" stroke-width="2" stroke-miterlimit="10"/>
<path d="M548.289 128.474L545.631 129.221" stroke="#0D0D0D" stroke-width="2" stroke-miterlimit="10" stroke-linecap="round"/>
<path d="M530.035 126.524C530.035 126.524 527.538 149.084 542.523 149.502C557.508 149.92 558.757 138.424 556.398 124.606" stroke="#0D0D0D" stroke-width="2" stroke-miterlimit="10"/>
<path d="M525.473 119.846C525.473 119.846 519.951 101.818 527.815 94.4309C535.68 87.0438 560.188 93.3801 559.267 100.66C558.346 107.939 536.235 108.465 536.235 108.465C536.235 108.465 535.768 115.428 532.627 116.586C532.627 116.586 532.255 123.416 533.548 127.125" stroke="#0D0D0D" stroke-width="2" stroke-miterlimit="10"/>
<path d="M496.119 198.521V271.848L587.189 297.377V215.72C587.188 201.65 583.052 187.986 575.441 176.912C567.83 165.839 557.183 157.995 545.203 154.636C539.368 153.001 533.284 152.902 527.41 154.344C521.536 155.786 516.027 158.733 511.298 162.961C506.57 167.189 502.746 172.589 500.117 178.75C497.487 184.912 496.12 191.675 496.119 198.528V198.521Z" fill="#EDEEEF"/>
<path d="M566.782 240.895L573.408 213.435L598.206 216.917L587.189 259.328L564.073 255.795" fill="#D9376E"/>
<path d="M571.482 275.988C571.482 275.988 582.682 484.561 551.042 583.309" stroke="#0D0D0D" stroke-width="2" stroke-miterlimit="10"/>
<path d="M509.289 164.877C509.289 164.877 463.435 223.487 473.053 271.854C482.671 320.222 580.268 276.21 582.532 255.802C584.797 235.394 567.403 248.471 567.403 248.471C567.403 248.471 568.513 237.552 565.183 241.768C561.853 245.984 559.333 249.364 559.333 249.364L520.056 244.23L529.891 219.334" stroke="#0D0D0D" stroke-width="2" stroke-miterlimit="10"/>
<path d="M598.206 210.688C589.048 215.853 587.189 207.421 587.189 207.421C585.607 208.054 580.579 214.441 581.139 207.421C581.264 205.463 581.91 203.596 582.991 202.068C584.072 200.541 585.537 199.427 587.189 198.876C587.189 198.876 611.248 191.982 613.191 225.342C615.133 258.701 601.225 279.995 587.189 274.203" stroke="#0D0D0D" stroke-width="2" stroke-miterlimit="10"/>
<path d="M565.705 165.896C576.092 174.486 584.714 185.552 590.974 198.325" stroke="#0D0D0D" stroke-width="2" stroke-miterlimit="10"/>
<path d="M198.573 349.192C207.776 349.192 216.602 352.727 223.109 359.018C229.616 365.31 233.272 373.844 233.272 382.742V519.688H163.875V382.753C163.873 378.347 164.77 373.983 166.513 369.911C168.256 365.839 170.811 362.139 174.034 359.023C177.256 355.906 181.081 353.434 185.292 351.747C189.503 350.06 194.016 349.192 198.573 349.192Z" fill="#0D0D0D"/>
<path d="M146.349 513.529H250.798V576.505H146.349V513.529Z" fill="#D9376E"/>
<path d="M165.015 588.797H146.349V556.921H182.886L165.015 588.797Z" fill="#D9376E"/>
<path d="M232.132 588.797H250.798V556.921H214.261L232.132 588.797Z" fill="#D9376E"/>
<path d="M48.7578 588.796H348.389" stroke="#0D0D0D" stroke-width="2" stroke-miterlimit="10"/>
<path d="M181.913 472.602H165.439C155.142 472.591 145.269 468.63 137.987 461.59C130.706 454.549 126.61 445.003 126.598 435.047V419.118C126.598 415.014 128.285 411.078 131.286 408.176C134.288 405.273 138.359 403.643 142.603 403.643C146.848 403.643 150.919 405.273 153.921 408.176C156.922 411.078 158.608 415.014 158.608 419.118V435.047C158.609 436.798 159.329 438.477 160.61 439.716C161.891 440.954 163.628 441.65 165.439 441.651H181.913C186.158 441.651 190.229 443.282 193.23 446.184C196.232 449.086 197.918 453.022 197.918 457.127C197.918 461.231 196.232 465.167 193.23 468.069C190.229 470.971 186.158 472.602 181.913 472.602Z" fill="#0D0D0D"/>
<path d="M215.254 493.096H231.727C242.025 493.085 251.898 489.125 259.179 482.084C266.461 475.044 270.557 465.498 270.568 455.541V439.613C270.568 435.508 268.882 431.572 265.88 428.67C262.879 425.768 258.808 424.137 254.563 424.137C250.318 424.137 246.247 425.768 243.246 428.67C240.244 431.572 238.558 435.508 238.558 439.613V455.56C238.557 457.312 237.837 458.991 236.556 460.229C235.275 461.468 233.539 462.164 231.727 462.165H215.254C211.009 462.165 206.938 463.795 203.936 466.698C200.935 469.6 199.249 473.536 199.249 477.64C199.249 481.744 200.935 485.681 203.936 488.583C206.938 491.485 211.009 493.115 215.254 493.115V493.096Z" fill="#0D0D0D"/>
</svg>
